<?xml version="1.0" encoding="utf-8"?>
<!-- Generator: Adobe Illustrator 28.1.0, SVG Export Plug-In . SVG Version: 6.00 Build 0)  -->
<svg version="1.1" xmlns="http://www.w3.org/2000/svg" xmlns:xlink="http://www.w3.org/1999/xlink" x="0px" y="0px"
	 viewBox="0 0 841.9 595.3" style="enable-background:new 0 0 841.9 595.3;" xml:space="preserve">
<style type="text/css">
	.st0{stroke:#000000;stroke-width:10;stroke-miterlimit:10;}
	.st1{fill:none;stroke:#FFFFFF;stroke-width:21;stroke-miterlimit:10;}
	.st2{fill:#F0C6C6;stroke:#F0C6C6;stroke-width:5;stroke-miterlimit:10;}
	.st3{fill:#E85D5E;stroke:#E85D5E;stroke-width:5;stroke-miterlimit:10;}
	.st4{fill:#E85D5E;stroke:#E65C5E;stroke-width:5;stroke-miterlimit:10;}
	.st5{fill:#8EC075;stroke:#8FC275;stroke-width:10;stroke-miterlimit:10;}
	.st6{fill:#176339;stroke:#196336;stroke-width:10;stroke-miterlimit:10;}
	.st7{fill:none;stroke:#000000;stroke-width:10;stroke-miterlimit:10;}
</style>
<g id="cherry_x5F_base">
	<ellipse class="st0" cx="332.2" cy="400.2" rx="121.5" ry="130.1"/>
	<path class="st1" d="M232.6,406.1c0-27.4,11.8-66,45-87.9c53.5-35.4,82.8-12.6,115.1-3.1c21,6.2,37.9,36.2,37.9,91.1
		s-44.3,99.4-99,99.4S232.6,461,232.6,406.1z"/>
	<path class="st2" d="M361.9,299.8c-6,0.2-118.5-2.8-132.4,107.2c-16.4,129.8,194,147.8,213.8-8.8
		C447,369.7,421.3,297.6,361.9,299.8z"/>
	<path class="st3" d="M430.6,388.1c-52.9-33.6-177,15.2-177,80.7c0,42.8,69,60.8,117.5,40.2C428.2,484.8,456.1,404.4,430.6,388.1z"
		/>
	<path class="st2" d="M516.6,370.6c-2,0.1-38.6,3.9-55.3,19.9c-2.1,2,2.9,20.2-1.7,42.6c-3.1,15.4-20.8,36.7-14.5,47
		c12.5,20.4,36.6,25.4,60.9,21c28.7-5.1,57.5-24.6,62.9-68.7c1.5-12.5-18.9-44-25.2-50C536.4,375.5,528.6,369.9,516.6,370.6z"/>
	<path class="st4" d="M549.4,396.4c-41.3-5.7-90.5,75.8-76.2,100.3c8.5,14.7,58.4,1.4,72-11.3C585.9,447.6,568.4,399,549.4,396.4z"
		/>
</g>
<g id="cherry_x5F_leaf">
	<path class="st0" d="M543.2,138c0,0-87.2-90.9-179,17.9c-4.5,5.4,72.1,76.2,144,46.8C513.6,200.4,543.2,138,543.2,138z"/>
	<path class="st5" d="M521.6,147.3c-2.9-1.2-63.5-54.8-128.1,9.7c-11.5,11.5,89.8,62.6,130.4,8.3C532.1,154.5,532.8,152,521.6,147.3
		z"/>
	<path class="st6" d="M515.2,147.8c-16.8,0-61.2-0.4-67.4,0c-8.4,0.5-13.7,16.8,10.9,16.8c26.9,0,44.3,0,56.3,0c0,0,10.2,0.6,15-4.4
		C536.2,153.6,530.6,147.8,515.2,147.8z"/>
</g>
<g id="cherry_x5F_outline">
	<path d="M552.5,189.9c0,0,3.3,107.7-24.6,159.1c-4.7,8.7-34.3,28.8-24.8-3.2c-4.2,0,32.5-154.7,32.5-154.7L552.5,189.9z"/>
	<path id="cherry_x5F_stem" class="st0" d="M575.6,82.6c0,0-57.6,207.8-234.8,264.9c-20.2,6.5,2.7,27.5,65.6-8.7
		c4.5-2.6,27.1-8.6,99.8-83.4c35.9-37,65.2-105.1,83.7-164.8C593.1,80.7,582.7,76.5,575.6,82.6z"/>
	<path id="inside_x5F_small_x5F_ch_x5F_circ" class="st7" d="M440.9,474.8c35-88.7-7.3-105.3,30.4-112.6
		c69.9-13.6,98.8,25.3,98.8,67.3s-30.2,76-67.4,76S434.8,490.1,440.9,474.8z"/>
	<path id="small_x5F_ch_x5F_circ" class="st7" d="M436.4,474.1C474,378.7,428.6,360.9,469,353c75.1-14.6,106.1,27.2,106.1,72.3
		s-32.4,81.7-72.4,81.7S429.9,490.5,436.4,474.1z"/>
	<path id="ch_x5F_circ" class="st7" d="M215.8,404.6c0-68.4,51.9-123.9,115.8-123.9c21.9,0,42.3,9,59.8,20.2
		c33.6,21.7,56.1,58.6,56.1,103.6c0,68.4-51.9,123.9-115.8,123.9S215.8,473,215.8,404.6z"/>
</g>
</svg>
