<?xml version="1.0" encoding="utf-8"?>
<!-- Generator: Adobe Illustrator 28.1.0, SVG Export Plug-In . SVG Version: 6.00 Build 0)  -->
<svg version="1.1" xmlns="http://www.w3.org/2000/svg" xmlns:xlink="http://www.w3.org/1999/xlink" x="0px" y="0px"
	 viewBox="0 0 841.9 595.3" style="enable-background:new 0 0 841.9 595.3;" xml:space="preserve">
<style type="text/css">
	.st0{stroke:#000000;stroke-width:6;stroke-miterlimit:10;}
	.st1{fill:#FFFFFF;stroke:#000000;stroke-width:6;stroke-miterlimit:10;}
	.st2{fill:#8FC275;stroke:#8FC275;stroke-width:6;stroke-miterlimit:10;}
	.st3{fill:#D1C6D4;stroke:#D1C6D4;stroke-width:6;stroke-miterlimit:10;}
	.st4{fill:#C6B9D4;stroke:#C6B9D4;stroke-width:6;stroke-miterlimit:10;}
	.st5{fill:#D1C6D4;stroke:#D3C7D9;stroke-width:6;stroke-miterlimit:10;}
	.st6{fill:#D3C7D9;stroke:#D3C7D9;stroke-width:6;stroke-miterlimit:10;}
	.st7{fill:#B688B6;stroke:#B688B6;stroke-width:4;stroke-miterlimit:10;}
	.st8{fill:none;stroke:#000000;stroke-width:6;stroke-miterlimit:10;}
</style>
<g id="grape_x5F_base">
	<path class="st0" d="M231.9,218.2c0-42.2,59.6-110.3,129.6-53.5c1.3,1.1-36.3,24.7-44.6,58.4c-10.2,41.3,18.4,70.6,16.6,71.1
		C272.5,310.5,231.9,260.4,231.9,218.2z"/>
	<path class="st0" d="M563.9,292.6c1.1,16.9-9.5,50.2-20.5,63c-35.1,40.8-81.5,25.4-108.9-26c-0.8-1.6,24.2-9.9,43.3-38.9
		c23.4-35.6,9.3-67.8,11.2-67.5C549.5,232.8,562.3,266.1,563.9,292.6z"/>
	<path class="st0" d="M307.6,139.7c17.4-40.1,40.8-73.7,103.6-58.2c38.8,9.6,53.6,70.5,49.1,91.2c-0.2,1-21.8-13.4-44.5-16
		c-24-2.7-49.3,6.3-50.8,5C334.1,134.7,306.9,141.2,307.6,139.7z"/>
	<path class="st0" d="M469.2,107c9.1-1.2,39.9-8.6,74.1,32.1c34.1,40.5,0.7,108.3-6.9,102.1c-16.6-13.7-46.4-16.5-46.6-19
		c-1.7-24.1-27.8-44.8-27.9-46.8C458.1,119.4,442.7,110.6,469.2,107z"/>
	<path class="st0" d="M487.2,381.5c2,9.1-18.5,49.3-65.9,56c-65.6,9.3-95.3-63.2-86.2-64.5c32.2-4.6,45.1-43.7,47.5-43
		c20.9,5.9,50.9-2.1,51.9-0.3C460.6,373.1,485.7,374.4,487.2,381.5z"/>
	<path class="st0" d="M343.2,489.2c-18.9,4.4-47.3,5.1-75-30.9c-38.3-49.8,4.5-103.8,9.8-96.9c14.9,19.4,52.5,10.5,53.2,12.7
		c21.4,63.9,77.1,63.7,76.2,65.3C385.6,478.4,370.8,482.7,343.2,489.2z"/>
	<path class="st0" d="M375.4,331c-12.6,41.3-59.2,52.6-91.8,33.6c-58.4-34.1-35.2-95.4-33.5-93.8c48.4,44.2,79.6,25.4,81.1,26.8
		C361.8,325.6,378.5,320.7,375.4,331z"/>
	<circle class="st0" cx="403.4" cy="243.2" r="86.5"/>
</g>
<g id="grape_x5F_colours">
	<g id="grape_x5F_outlines_x5F_2">
		<path class="st1" d="M253.6,218.1c0-32.6,42.9-82.1,93-45.4c1,0.7-28.9,23.2-34.7,49.1c-7,31.9,12.6,54.5,11.4,54.8
			C281.5,289.4,253.6,250.7,253.6,218.1z"/>
		<path class="st1" d="M470.2,126.6c6.7-0.6,29-5,55.8,26c30.6,35.4,2.7,75.2-2,75.2c-30.8,0-34.8-13.6-35-15.4
			c-2-17.9-21.9-33.9-22-35.4C462.4,135.4,450.7,128.5,470.2,126.6z"/>
		<path class="st1" d="M324.9,141.4c13.1-28.3,30.7-51.9,78-41c29.2,6.7,40.3,49.7,36.9,64.3c-0.2,0.7-16.4-9.5-33.4-11.3
			c-18.1-1.9-37.1,4.4-38.2,3.5C344.8,137.9,324.4,142.4,324.9,141.4z"/>
		<circle class="st1" cx="403.4" cy="243.2" r="64"/>
		<path class="st0" d="M471.4,104c1.2,0,23.6-31.7,46-33.7c16.9-1.5,4.3-34.8-27.4-12.7s-38.6,40.2-38.6,40.2S408.6-2.3,294,60.7
			c-1.4,0.7,27.4,52.6,29.3,49.1c27.1-48.2,107.3-42.4,128,3.8C452.1,115.3,457.7,104,471.4,104z"/>
	</g>
	<path class="st2" d="M409.3,76.8c0,0-28.5-33.3-89.6-6.5c-4.4,1.9,9.5,17.8,13.8,22.9S343.3,70.8,409.3,76.8z"/>
	<path class="st3" d="M369.7,152.8c67.1-13.4,67.7,12.9,67.7,7c0-12.4-0.7-22.5-5.4-27.4c-14.9-15.5-69-15-85.3,10.6
		C346.7,143,363.8,153.9,369.7,152.8z"/>
	<path class="st3" d="M318.9,274.7c-30.8-75.3,28.2-98.2,23.1-101c-16.2-8.8-28.4-2.7-38.1,7c-21.3,21.3-36.5,51.8-21.9,87.8
		C282.8,270.5,321.4,280.9,318.9,274.7z"/>
	<path class="st4" d="M349.8,319.5c-60.3,9.2-84-15.4-84.2-14c-2.1,18.3,8.1,30.7,20.7,37.9c25.6,14.6,57.5,5.7,71.7-19
		C359.1,322.5,351.3,319.2,349.8,319.5z"/>
	<path class="st4" d="M368.4,457.3c-63.6-25.5-81.5-76-82.7-74.9c-15.9,14.7-8.7,41.8-6.2,47.1c3.5,7.4,27.5,45.5,65.2,38.3
		C347.3,467.3,375.3,460.1,368.4,457.3z"/>
	<path class="st5" d="M493.2,212.4c3.4,13.2,26.8,15.4,30.1,13.5c10.7-6.2,21.1-42.2,14-50.9c-6.7-8.1-43.5-17.9-62.2,3.3
		C468.8,185.6,487.9,191.3,493.2,212.4z"/>
	<path class="st6" d="M415.5,183.8c-2.6-0.7-80.2,30.6-30.3,117.5c2.3,4,66,12.1,75.9-46.1C469.5,206.1,422.5,185.6,415.5,183.8z"/>
	<path class="st4" d="M358,376.4c0,0,38.6,66.4,93.3,23.3c3.5-2.8-29.9-10.6-28.7-34.2c0.3-6.5-3.4,1.6-9.2,4.8
		c0,0-34.4,5.9-48.7,1.1C363.1,370.8,358,376.4,358,376.4z"/>
	<path class="st4" d="M512.2,256c0,0,12.6,51.5-54.4,83.2c-2.2,1.1,6.6,18,6.6,18s59,18.8,77.8-39.8c3.1-9.5,5.4-41.8-20.9-62.6
		C520.5,254.2,512.2,256,512.2,256z"/>
	<path class="st7" d="M494.6,243.1c-0.9-0.3-5.4,71.4-55.8,86.7c-2.5,0.8,16.4,25.3,21,24.8s-8.5-11.9-2.5-16.9
		c6-5,52.2-23.5,52.2-82.5c0,0,7.3-4.1,6.7-4C516.3,251.2,516.6,250.7,494.6,243.1z"/>
	<path class="st7" d="M383.2,334.3c0,0,23.5,9.6,32.2,3.7c5.1-3.6-5,17.8,49.8,43.3c4.3,2-6.9,14.8-11.1,16.8s-25.2-18.6-27.7-29.8
		c-2.5-11-8-7-14.3-0.8c-1.2,1.2-26.6,1.2-49.2,1.2c-0.7,0-5.6,5.5-6.3,5c-1.1-0.7-1.4-5-1.4-5S378.2,351.6,383.2,334.3z"/>
	<path class="st7" d="M384.6,436.8c0,0-8.7,14.2-14.4,18.5c-1.3,1-46.6-17.9-83.8-75.5c-0.3-0.4,3.9-3.7,3.9-3.7s25.5,9.2,37.7,4.3
		C329.3,379.8,341,421.1,384.6,436.8z"/>
	<path class="st7" d="M266.8,291.4c0,0,25,28.4,59.8,12.6c3.9-1.8-0.8,5.1,19.1,13.8c1.6,0.7-31.1,4.9-41.4,3.2
		c-10.8-1.8-35-14.1-39.7-18.7L266.8,291.4z"/>
</g>
<g id="grape_x5F_outlines">
	<path class="st8" d="M324.9,141.4c13.1-28.3,30.7-51.9,78-41c29.2,6.7,40.3,49.7,36.9,64.3c-0.2,0.7-16.4-9.5-33.4-11.3
		c-18.1-1.9-37.1,4.4-38.2,3.5C344.8,137.9,324.4,142.4,324.9,141.4z"/>
	<path class="st8" d="M253.6,218.1c0-32.6,42.9-82.1,93-45.4c1,0.7-28.9,23.2-34.7,49.1c-7,31.9,12.6,54.5,11.4,54.8
		C281.5,289.4,253.6,250.7,253.6,218.1z"/>
	<path class="st8" d="M470.2,126.6c6.7-0.6,29-5,55.8,26c30.6,35.4,2.7,75.2-2,75.2c-30.8,0-34.8-13.6-35-15.4
		c-2-17.9-21.9-33.9-22-35.4C462.4,135.4,450.7,128.5,470.2,126.6z"/>
	<circle class="st8" cx="403.4" cy="243.2" r="64"/>
	<path class="st8" d="M361.3,325.9c-9.3,30.8-44.5,39.1-69.2,24.7c-44.3-25.7-27.8-65.6-26.6-64.4c36.8,33.2,61.1,13.5,62.2,14.5
		C351.1,321.9,363.6,318.3,361.3,325.9z"/>
	<path class="st8" d="M467.1,379.2c5.6,4.3-24.5,51.2-69.2,36.1c-32-10.8-51.2-48.4-44.7-49.2c10.3-1.2,26.1-37.1,27.7-36.3
		c14.2,6.9,36.4,4.3,36.8,5.8C425,360.6,457.2,371.8,467.1,379.2z"/>
	<path class="st8" d="M519.6,250.1c0,0,21.1,15,25.8,36.2c8,36-8.7,85.9-84.3,73.8c0,0-26.8-17.8-24.4-32.1
		c1.2-7.1,13.9-0.8,24.4-14c25.3-31.9,30.7-38.6,32.6-73.9L519.6,250.1z"/>
	<path class="st8" d="M342.3,470.3c-14.1,3-35.4,3-56.8-24.5c-29.6-38-0.3-75.6,5.6-72.5c17,8.8,38.1,2.3,38.7,4
		c17.1,48.3,60.3,55.6,59.7,56.8C374,463,362.9,465.9,342.3,470.3z"/>
</g>
</svg>
