<?xml version="1.0" encoding="utf-8"?>
<!-- Generator: Adobe Illustrator 28.1.0, SVG Export Plug-In . SVG Version: 6.00 Build 0)  -->
<svg version="1.1" xmlns="http://www.w3.org/2000/svg" xmlns:xlink="http://www.w3.org/1999/xlink" x="0px" y="0px"
	 viewBox="0 0 841.9 595.3" style="enable-background:new 0 0 841.9 595.3;" xml:space="preserve">
<style type="text/css">
	.st0{stroke:#000000;stroke-width:10;stroke-miterlimit:10;}
	.st1{fill:#FFFFFF;stroke:#FFFFFF;stroke-width:10;stroke-miterlimit:10;}
	.st2{fill:#EDA856;stroke:#EBA856;stroke-width:4;stroke-miterlimit:10;}
	.st3{fill:#F7D182;stroke:#F6D182;stroke-width:4;stroke-miterlimit:10;}
	.st4{fill:#8FC275;stroke:#8FC275;stroke-miterlimit:10;}
	.st5{fill:#196336;stroke:#176339;stroke-width:3;stroke-linecap:round;stroke-miterlimit:10;}
	.st6{fill:none;stroke:#000000;stroke-width:10;stroke-miterlimit:10;}
</style>
<g id="lemon_x5F_base">
	<path class="st0" d="M582.3,139.5c0,0,168.8,176.8-87.5,358c-53.5,37.8-126.6,5-134,15.2c-5.8,7.9-51.5,26.1-78.7,6.3
		c-16-11.7-20.3-41.5-20.3-41.5S202,410.6,209.5,322c4.8-57.4,48.2-175.8,103.3-199.5l-24.9-28.3c0,0,97.5-113.1,194.5-16.1
		c0,0,34.9-43.3,71.2-13C576.8,84.5,597.6,90.8,582.3,139.5z"/>
	<path class="st1" d="M550.7,144.8c0,0,61.4,57.2,57.8,131.2c-5.3,109.2-94.3,243.2-260.5,207.8c0,0-3.8,15.7-14.7,22.5
		c-18.2,11.4-49.9,20.4-54.2-28l11.1,4.1c6,2.5,15.8,4.1,21.6,1.1c1-0.5,1.9-1.1,2.7-1.8c1.5-1.3,3-2.5,5.8-7.1
		c2.4-3.9,2.1-7.7,1.3-11.7c-0.1-0.6-3-4.4-3.1-4.5c-10.1-8.3-28.9-4.3-42.6-14.8c-22.2-17-54.5-22.4-33.9-140.7
		c1.4-8,16-65,19.2-72.4c14.5-32.8,43.9-95.5,72.4-95.5c5.4,0,51,21.3,83.4,17.7c20.7-2.3,34.6-11.9,45.4-18.8
		c25.2-16,33-36.3,35.7-34.3c0,0,26.8-27.9,50.1-13.6C577.7,104.3,550.7,144.8,550.7,144.8z"/>
</g>
<g id="lemon_x5F_colours">
	<path class="st2" d="M565.7,104.2c1.7,1.1,3.1,10.2,0.7,18.5c-4.4,15.2-9.6,19.1-10.8,16.4"/>
	<path class="st3" d="M564.1,118.4c0.8-5.6-1.8-23.6-3.1-23.4c-16.3,2.2-26,20.1-25.2,29.8c1.2,14.5-50.6-12.1-71,3
		c-15.8,11.7-41.5,32.6-99.3,14.3c-11.3-3.6-53.9,42.5-71.6,84.4c-27.5,64.9-40.3,169.2-10.5,207.5c11.4,14.6,43.7,25.6,43.7,25.6
		s112.4-45.9,145.3-97.9c68-107.3,77.8-130,83.6-211.4L564.1,118.4z"/>
	<path class="st2" d="M555.9,145.7c0.5,6.1,0.2,0.6,0.2,1.1c0.5,6.7-7.2,32.4-10.6,53.1c-10,59.4-43.6,184.4-213.2,261.1
		c-12.9,5.8-34.5,82.5,10.7,42.1c36.2-32.2,61.7,48.1,174-44.3c44.1-36.3,86.6-93,94.8-160.6c6.4-53-2.3-87.2-16.3-113.3
		C582.7,160.8,554.4,125.4,555.9,145.7z"/>
	<path class="st4" d="M458.3,85.8c0,0-62.8-60.8-139.6,8.6c-2,1.8,62.4,65.6,139.4,9.4L458.3,85.8z"/>
	<path class="st5" d="M457.5,85.1c-1.8-1.4-92.1-0.1-92.1-0.1s-7.7,8.1-0.2,16.8l93-0.3C458.2,101.5,465.9,91.7,457.5,85.1z"/>
	<path class="st2" d="M564.2,101.2l-8.1,40.6l2.1,0.1c0,0,8.3-11,10.6-22.4C570.2,112.6,565.1,103.2,564.2,101.2z"/>
</g>
<g id="lemon_x5F_outline">
	<path class="st6" d="M559.4,139.7c0,0,64.5,59.6,60.7,136.5c-5.4,110.1-153.3,274.9-259.7,220.2c-7.4-3.8-16.5,2.7-20.6,10
		c-1.9,3.5-4.7,6.9-8.7,9.4c-19.1,11.9-53.3,4.2-57.9-46.2l-0.3-2.2c1.8-3.8-3.3,0.2,2.7-2.9c1.1-0.5-4.1,1.4-3.2,0.7
		c1.5-1.3,11.9,5.6,22.1,9.1c10.8,3.7,25.2,0.5,24.3-3.7c-0.1-0.6-3.1-4.6-3.3-4.7c-10.6-8.7-30.4-4.4-44.8-15.3
		c-23.3-17.7-57.2-23.3-35.6-146.4c1.5-8.3,16.8-67.7,20.2-75.4c15.2-34.1,46.1-99.4,76.1-99.4c5.7,0,53.5,22.1,87.5,18.5
		c21.8-2.3,30.4-11.9,41.7-19.1c26.5-16.7,34.6-37.7,37.5-35.7c0,0,34.1-29.5,58.6-14.6C587.8,97.6,559.4,139.7,559.4,139.7z"/>
</g>
</svg>
