<?xml version="1.0" encoding="utf-8"?>
<!-- Generator: Adobe Illustrator 28.2.0, SVG Export Plug-In . SVG Version: 6.00 Build 0)  -->
<svg version="1.1" xmlns="http://www.w3.org/2000/svg" xmlns:xlink="http://www.w3.org/1999/xlink" x="0px" y="0px"
	 viewBox="0 0 841.9 595.3" style="enable-background:new 0 0 841.9 595.3;" xml:space="preserve">
<style type="text/css">
	.st0{stroke:#000000;stroke-width:10;stroke-miterlimit:10;}
	.st1{fill:#FFFFFF;stroke:#000000;stroke-width:3;stroke-miterlimit:10;}
	.st2{fill:#E89BB2;stroke:#E89BB2;stroke-width:3;stroke-miterlimit:10;}
	.st3{fill:none;stroke:#000000;stroke-width:10;stroke-miterlimit:10;}
	.st4{fill:#F3CCCB;stroke:#F3CCCB;stroke-width:3;stroke-miterlimit:10;}
	.st5{fill:#90C375;stroke:#000000;stroke-width:5;stroke-miterlimit:10;}
	.st6{fill:#8FC074;stroke:#000000;stroke-width:5;stroke-miterlimit:10;}
	.st7{fill:#186338;stroke:#196336;stroke-width:2;stroke-miterlimit:10;}
	.st8{fill:#176339;stroke:#196336;stroke-width:5;stroke-miterlimit:10;}
</style>
<g id="peach_x5F_outline_x5F_layer">
	<g id="peach_x5F_outline_x5F_base">
		<path id="shape" class="st0" d="M268.9,87.6c10.1-26.1,16.2-21.8,93.2,35.6c8,5.9,12.7,10.4,19.6,17.5c0-1.6,1.4-4.6-0.8-4.6
			c-4,0.1,2.2,6.6,3,7.3c3.6-17.8,10.3-34,20.6-48.8C412,84,424,75,436,69c20-9,45-17,66-5c23,25,13,62-6,88c0,0,1,1,1.4,0.6
			c-0.6-0.2-1.2-0.5-1.8-0.6c8.5,4,16.5,7,23.5,13c12,9,23,18,30,32c1,2,3,2,4,4c23,38,28,81,22,124c-4,29-14,53-30,78
			c-9,13-19,23-30,34c-1,1-3,1-4,2c-19,18-42,31-66,41c-32,12-66,20-101,15c-17-3-34-10-44-26c-4-5-8-11-14-14c-2-1-5-1-7-3
			c-1-1-3,0-4-1c-19-10-31-27-44-43c-8-9-14-18-20-28c-21-38-33-79-26-122c7-44,31.6-75.2,47-86.8c0,0,3.8-6.2,29.4-16.5
			c7.3-2.9,17.1-3.3,28.1-7.5c8.2-3.1-16.9-33.2,5.2-47.3C302.4,95.1,266.3,94.3,268.9,87.6z"/>
		<path id="peach_x5F_outline" class="st1" d="M338.5,166.1c0,0-53.4,31-53.4,128.9c0,18.4,25.5,0.9,22-20.5
			c-2.9-17.5,6.2-111.1,127.2-111.1S583,279.7,542.7,361.9c-40.3,82.3-117,114.9-170.2,114.9c-33,0-48-3.6-56.6-12.8
			c-3.9-4.2-6.4-9.5-8.7-16.2c-3.6-10.6-25.2-17.5-33.9-25.2c-5.8-5.1-17.7-16.3-17.7-16.3s-31.5-31.4-42.4-68.9
			c-18-62.4-13.2-148.3,76.7-170.6C305,163.3,318.4,166.1,338.5,166.1z"/>
	</g>
</g>
<g id="peach_x5F_colour_x5F_layer">
	<g id="peach_x5F_colours">
		<path id="pink_x5F_peach" class="st2" d="M435,163.5c-7,0-21.5-2,0.1,39c12.3,23.3,16.7,29.5,5.7,104.6
			c-10.7,73.4-39,123.1-115.1,161.4c-3.7,1.9,65.2,29.1,139.9-22.3c96.7-66.5,97.3-133.1,99.4-161.9
			C565,284.3,567.3,163.5,435,163.5z"/>
		<path id="peach_x5F_outline_x5F_2" class="st3" d="M268.9,87.6c10.1-26.1,16.2-21.8,93.2,35.6c8,5.9,12.7,10.4,19.6,17.5
			c0-1.6,1.4-4.6-0.8-4.6c-4,0.1,2.2,6.6,3,7.3c3.6-17.8,10.3-34,20.6-48.8C412,84,424,75,436,69c20-9,45-17,66-5c23,25,13,62-6,88
			c0,0,1,1,1.4,0.6c-0.6-0.2-1.2-0.5-1.8-0.6c8.5,4,16.5,7,23.5,13c12,9,23,18,30,32c1,2,3,2,4,4c23,38,28,81,22,124
			c-4,29-14,53-30,78c-9,13-19,23-30,34c-1,1-3,1-4,2c-19,18-42,31-66,41c-32,12-66,20-101,15c-17-3-34-10-44-26c-4-5-8-11-14-14
			c-2-1-5-1-7-3c-1-1-3,0-4-1c-19-10-31-27-44-43c-8-9-14-18-20-28c-21-38-33-79-26-122c7-44,31.6-75.2,47-86.8
			c0,0,3.8-6.2,29.4-16.5c7.3-2.9,17.1-3.3,28.1-7.5c8.2-3.1-16.9-33.2,5.2-47.3C302.4,95.1,266.3,94.3,268.9,87.6z"/>
		<path id="light_x5F_pink_x5F_peach" class="st4" d="M456.8,168.6c-3.4-1.4-47.1-11.5-101.9,15c-21.4,10.3-49.5,57.4-45.4,92.2
			c2.2,18.2-18.6,37-20.4,21.6c-9.9-83.4,43-130.1,43-130.1s-94.2-0.9-94.2,130.1c0,90.3,90.1,133,91.7,166.4
			c0.4,7.9,83.9-47.1,105.1-120.5C460.7,252.8,471.6,174.7,456.8,168.6z"/>
	</g>
</g>
<g id="peach_x5F_leaves">
	<path id="left_x5F_leaf" class="st5" d="M304.4,153.9c0,0-16.2-42.3-7.2-44.3c8.9-2,11.7-1.1,17.5,1c5.9,2.1,28.9,22.9,31.9,26
		c3,3,4.7,11.7,4.1,15.7S347.6,149,304.4,153.9z"/>
	<path id="right_x5F_leaf" class="st6" d="M404.3,145.5c0,0,11.2-68.2,83.5-65.1c9.4,0.4,15,41.4-10.6,63.6
		c-8.2,7.1-26.1-4-73.1,1.6l0,0"/>
	<path id="left_x5F_leaf_x5F_middle" class="st7" d="M332.1,148.6c0,0-20.4-18.4-23.2-21.8c-0.9-1.1-2.2-11.7,5.3-6.2
		c12.1,8.9,24.8,17.1,28.9,27C344.2,150,332.1,148.6,332.1,148.6z"/>
	<path id="right_x5F_leaf_x5F_middle" class="st8" d="M420.9,139.7c0,0,35.4-31.3,50.1-39.2c2.1-1.2,16-5.8,12,3.4
		s-44.3,35.7-44.3,35.7L420.9,139.7z"/>
</g>
</svg>
