<?xml version="1.0" encoding="UTF-8"?>
<svg xmlns="http://www.w3.org/2000/svg" viewBox="0 0 404.33 448.58">
  <defs>
    <style>
      .cls-1 {
        fill: #90c375;
      }

      .cls-1, .cls-2, .cls-3 {
        stroke-width: 5px;
      }

      .cls-1, .cls-2, .cls-3, .cls-4, .cls-5, .cls-6, .cls-7, .cls-8, .cls-9 {
        stroke-miterlimit: 10;
      }

      .cls-1, .cls-2, .cls-5, .cls-6, .cls-7 {
        stroke: #000;
      }

      .cls-2 {
        fill: #8fc074;
      }

      .cls-3 {
        fill: #176339;
      }

      .cls-3, .cls-4 {
        stroke: #196336;
      }

      .cls-4 {
        fill: #186338;
        stroke-width: 2px;
      }

      .cls-5 {
        fill: none;
      }

      .cls-5, .cls-6 {
        stroke-width: 10px;
      }

      .cls-7 {
        fill: #fff;
      }

      .cls-7, .cls-8, .cls-9 {
        stroke-width: 3px;
      }

      .cls-8 {
        fill: #e89bb2;
        stroke: #e89bb2;
      }

      .cls-9 {
        fill: #f3cccb;
        stroke: #f3cccb;
      }
    </style>
  </defs>
  <g id="peach_outline_layer">
    <g id="peach_outline_base">
      <path id="shape" class="cls-6" d="M90.8,34.67c10.1-26.1,16.2-21.8,93.2,35.6,8,5.9,12.7,10.4,19.6,17.5,0-1.6,1.4-4.6-.8-4.6-4,.1,2.2,6.6,3,7.3,3.6-17.8,10.3-34,20.6-48.8,7.5-10.6,19.5-19.6,31.5-25.6,20-9,45-17,66-5,23,25,13,62-6,88,0,0,1,1,1.4.6-.6-.2-1.2-.5-1.8-.6,8.5,4,16.5,7,23.5,13,12,9,23,18,30,32,1,2,3,2,4,4,23,38,28,81,22,124-4,29-14,53-30,78-9,13-19,23-30,34-1,1-3,1-4,2-19,18-42,31-66,41-32,12-66,20-101,15-17-3-34-10-44-26-4-5-8-11-14-14-2-1-5-1-7-3-1-1-3,0-4-1-19-10-31-27-44-43-8-9-14-18-20-28C12,289.07,0,248.07,7,205.07c7-44,31.6-75.2,47-86.8,0,0,3.8-6.2,29.4-16.5,7.3-2.9,17.1-3.3,28.1-7.5,8.2-3.1-16.9-33.2,5.2-47.3,7.6-4.8-28.5-5.6-25.9-12.3Z"/>
      <path id="peach_outline" class="cls-7" d="M160.4,113.17s-53.4,31-53.4,128.9c0,18.4,25.5.9,22-20.5-2.9-17.5,6.2-111.1,127.2-111.1s148.7,116.3,108.4,198.5c-40.3,82.3-117,114.9-170.2,114.9-33,0-48-3.6-56.6-12.8-3.9-4.2-6.4-9.5-8.7-16.2-3.6-10.6-25.2-17.5-33.9-25.2-5.8-5.1-17.7-16.3-17.7-16.3,0,0-31.5-31.4-42.4-68.9-18-62.4-13.2-148.3,76.7-170.6,15.1-3.5,28.5-.7,48.6-.7Z"/>
    </g>
  </g>
  <g id="peach_colour_layer">
    <g id="peach_colours">
      <path id="pink_peach" class="cls-8" d="M256.9,110.57c-7,0-21.5-2,.1,39,12.3,23.3,16.7,29.5,5.7,104.6-10.7,73.4-39,123.1-115.1,161.4-3.7,1.9,65.2,29.1,139.9-22.3,96.7-66.5,97.3-133.1,99.4-161.9,0,0,2.3-120.8-130-120.8Z"/>
      <path id="peach_outline_2" class="cls-5" d="M90.8,34.67c10.1-26.1,16.2-21.8,93.2,35.6,8,5.9,12.7,10.4,19.6,17.5,0-1.6,1.4-4.6-.8-4.6-4,.1,2.2,6.6,3,7.3,3.6-17.8,10.3-34,20.6-48.8,7.5-10.6,19.5-19.6,31.5-25.6,20-9,45-17,66-5,23,25,13,62-6,88,0,0,1,1,1.4.6-.6-.2-1.2-.5-1.8-.6,8.5,4,16.5,7,23.5,13,12,9,23,18,30,32,1,2,3,2,4,4,23,38,28,81,22,124-4,29-14,53-30,78-9,13-19,23-30,34-1,1-3,1-4,2-19,18-42,31-66,41-32,12-66,20-101,15-17-3-34-10-44-26-4-5-8-11-14-14-2-1-5-1-7-3-1-1-3,0-4-1-19-10-31-27-44-43-8-9-14-18-20-28C12,289.07,0,248.07,7,205.07c7-44,31.6-75.2,47-86.8,0,0,3.8-6.2,29.4-16.5,7.3-2.9,17.1-3.3,28.1-7.5,8.2-3.1-16.9-33.2,5.2-47.3,7.6-4.8-28.5-5.6-25.9-12.3Z"/>
      <path id="light_pink_peach" class="cls-9" d="M278.7,115.67c-3.4-1.4-47.1-11.5-101.9,15-21.4,10.3-49.5,57.4-45.4,92.2,2.2,18.2-18.6,37-20.4,21.6-9.9-83.4,43-130.1,43-130.1,0,0-94.2-.9-94.2,130.1,0,90.3,90.1,133,91.7,166.4.4,7.9,83.9-47.1,105.1-120.5,26-90.5,36.9-168.6,22.1-174.7Z"/>
    </g>
  </g>
  <g id="peach_leaves">
    <path id="left_leaf" class="cls-1" d="M126.3,100.97s-16.2-42.3-7.2-44.3c8.9-2,11.7-1.1,17.5,1,5.9,2.1,28.9,22.9,31.9,26,3,3,4.7,11.7,4.1,15.7s-3.1-3.3-46.3,1.6Z"/>
    <path id="right_leaf" class="cls-2" d="M226.2,92.57s11.2-68.2,83.5-65.1c9.4.4,15,41.4-10.6,63.6-8.2,7.1-26.1-4-73.1,1.6h0"/>
    <path id="left_leaf_middle" class="cls-4" d="M154,95.67s-20.4-18.4-23.2-21.8c-.9-1.1-2.2-11.7,5.3-6.2,12.1,8.9,24.8,17.1,28.9,27,1.1,2.4-11,1-11,1Z"/>
    <path id="right_leaf_middle" class="cls-3" d="M242.8,86.77s35.4-31.3,50.1-39.2c2.1-1.2,16-5.8,12,3.4-4,9.2-44.3,35.7-44.3,35.7l-17.8.1Z"/>
  </g>
</svg>