<?xml version="1.0" encoding="UTF-8"?>
<svg xmlns="http://www.w3.org/2000/svg" viewBox="0 0 526.05 534.86">
  <defs>
    <style>
      .cls-1 {
        stroke-width: 5px;
      }

      .cls-1, .cls-2, .cls-3, .cls-4, .cls-5, .cls-6, .cls-7, .cls-8, .cls-9, .cls-10, .cls-11, .cls-12, .cls-13, .cls-14, .cls-15, .cls-16 {
        stroke-miterlimit: 10;
      }

      .cls-1, .cls-4, .cls-14 {
        fill: #fff;
        stroke: #fff;
      }

      .cls-2, .cls-7, .cls-8, .cls-9, .cls-10, .cls-11, .cls-12, .cls-13, .cls-16 {
        stroke: #000;
      }

      .cls-2, .cls-12, .cls-13, .cls-14, .cls-15 {
        stroke-width: 6px;
      }

      .cls-3 {
        fill: #ef8481;
        stroke: #f08481;
      }

      .cls-3, .cls-4, .cls-7, .cls-11 {
        stroke-width: 10px;
      }

      .cls-5 {
        fill: #f2cccb;
        stroke: #f3cccb;
      }

      .cls-5, .cls-6, .cls-9 {
        stroke-width: 2px;
      }

      .cls-6 {
        fill: #f3cccb;
        stroke: #f1cccc;
      }

      .cls-7, .cls-10, .cls-16 {
        fill: none;
      }

      .cls-8 {
        stroke-width: 9px;
      }

      .cls-10 {
        stroke-width: 11px;
      }

      .cls-12 {
        fill: #f1cccc;
      }

      .cls-13 {
        fill: #f08481;
      }

      .cls-15 {
        fill: #4ba64a;
        stroke: #4ca649;
      }

      .cls-16 {
        stroke-width: 7px;
      }

      .cls-17 {
        fill: #4ca649;
        stroke-width: 0px;
      }
    </style>
  </defs>
  <g id="layer_melon_base">
    <g id="melon_base">
      <path id="base" class="cls-11" d="M271.35,8.69L5.05,387.29s4.6,157.6,378,141.4c57-2.5,138-60.6,138-143.3,0-21.5-249.7-376.7-249.7-376.7Z"/>
    </g>
  </g>
  <g id="layer_melon_colours">
    <g id="melon_colours">
      <path id="pink_front" class="cls-3" d="M284.25,85.79s36.1,249.4,36.4,250.1c.2.6-81.5,162.3,84.8,108.6,26.3-8.5,68.8-39.9,77.1-74.6,2.4-9.6-198.3-284.1-198.3-284.1Z"/>
      <polygon id="light_pink_side" class="cls-5" points="225.05 121.79 94.05 379.69 160.75 378.79 225.05 121.79"/>
      <path id="light_pink_front" class="cls-6" d="M276.75,68.99l-77.4,291.6s37.2,98.1,139.3,98.1c6.7,0-53.3-379.7-53.3-379.7l-8.6-10Z"/>
      <polygon id="edge_reflection_2" class="cls-1" points="52.25 360.39 175.15 361.89 170.45 381.19 44.65 381.19 52.25 360.39"/>
      <path id="shadow" class="cls-9" d="M180.45,443.29c-4.3-12.4,8.6-20.1,15.2-12.5,11.7,13.6,16.9,26.2,35.6,32.9,17,6.1,14.6,31.9-10.9,17.5-2.5-1.4-33.3-18.9-39.9-37.9Z"/>
      <path id="green_botom" class="cls-15" d="M79.65,397.09s30.9,97.3,166.6,103.7c4,.2,11.5-9,15.3-14.3,0,0,124.1,70.5,218.2-43.6,17.5-21.2,16-52.1,16-52.1,0,0-14.8,40.2-65.3,69.5-142.3,82.7-244.2-65.7-244.2-65.7,0,0-49.5.7-60.9,1.4-4.2.4-45.7,1.1-45.7,1.1Z"/>
      <path id="green_edge_2" class="cls-15" d="M86.15,376.09l-4.4,5.1,88.8-.4s2.4-9,2.8-11.3l-87.2,6.6Z"/>
      <path id="bottom_relfection" class="cls-14" d="M75.05,397.29l-42.2-.2s5.8,31.7,46.8,57.3c67.4,42,99.9,37.5,99.9,37.5,0,0-37.3-17.4-69.4-46.1-39.7-35.5-33.5-44.7-35.1-48.5Z"/>
      <polyline id="green_edge" class="cls-17" points="79.25 368.39 161.65 368.39 157.95 381.89 70.55 382.19"/>
      <polygon id="edge_reflection" class="cls-4" points="48.75 365.09 38.45 378.79 76.65 378.89 85.35 365.29 48.75 365.09"/>
    </g>
  </g>
  <g id="layer_melon_seeds">
    <g id="melon_seeds">
      <path id="out_seed_3" class="cls-2" d="M320.65,397.29c0-12.9,23.5-46.6,23.5-46.6,0,0,23.5,33.7,23.5,46.6s-10.5,23.4-23.5,23.4-23.5-10.5-23.5-23.4Z"/>
      <path id="out_seed_2" class="cls-2" d="M243.05,369.59c0-12.4,21.9-44.6,21.9-44.6,0,0,21.9,32.3,21.9,44.6s-9.8,22.4-21.9,22.4c-12.1-.1-21.9-10.1-21.9-22.4Z"/>
      <path id="out_seed_1" class="cls-2" d="M386.65,370.09c0-12.9,23.5-46.6,23.5-46.6,0,0,23.5,33.7,23.5,46.6s-10.5,23.3-23.5,23.3-23.5-10.4-23.5-23.3Z"/>
      <path id="seed_3" class="cls-12" d="M249.75,368.49c0-9,15.5-32.5,15.5-32.5,0,0,15.5,23.5,15.5,32.5s-6.9,16.3-15.5,16.3c-8.6,0-15.5-7.3-15.5-16.3Z"/>
      <path id="seed_2" class="cls-13" d="M327.15,397.19c0-9.8,17.4-35.3,17.4-35.3,0,0,17.4,25.5,17.4,35.3s-7.8,17.7-17.4,17.7-17.4-7.9-17.4-17.7Z"/>
      <path id="seed_1" class="cls-13" d="M394.65,369.09c0-9.2,15.5-33.1,15.5-33.1,0,0,15.5,24,15.5,33.1s-6.9,16.6-15.5,16.6-15.5-7.5-15.5-16.6Z"/>
    </g>
  </g>
  <g id="layer_melon_outlines">
    <g id="melon_outline">
      <path id="edge_outline" class="cls-10" d="M55.05,360.39h118.3s30.6,23.7,3.4,27.3c-4.1.5-153.3.7-161.7.7-.1,0-.1-.2-.1-.2l40.1-27.8Z"/>
      <path id="front_outline" class="cls-16" d="M277.65,67.49l-78.3,293.1s7.3,32.4,36.8,60.1c38.1,35.5,107.7,64.4,189.5,18.5,45-25.2,63.9-70.8,63.9-70.8L277.65,67.49Z"/>
      <path id="bottom_shadow" class="cls-8" d="M179.05,441.39s10.6,23.8,46,42.4c16.4,8.6,25.2-12.3,5.4-20.5-10.9-4.5-19.6-24.6-33.3-29.4-22.4-10.8-18.1,7.5-18.1,7.5Z"/>
      <polygon id="side_shadow" class="cls-7" points="236.15 104.59 58.15 356.69 103.45 356.69 236.15 104.59"/>
    </g>
  </g>
</svg>